<svg xmlns="http://www.w3.org/2000/svg" viewBox="0 0 512 512">
  <defs>
    <linearGradient id="gradient" x1="0%" y1="0%" x2="100%" y2="100%">
      <stop offset="0%" style="stop-color:#10b981;stop-opacity:1" />
      <stop offset="100%" style="stop-color:#059669;stop-opacity:1" />
    </linearGradient>
  </defs>
  <rect width="512" height="512" rx="128" fill="url(#gradient)" />
  <!-- 心电图/健康图标 -->
  <path d="M128 256 L192 256 L224 192 L256 320 L288 256 L384 256" stroke="white" stroke-width="24" fill="none" stroke-linecap="round" stroke-linejoin="round"/>
  <!-- 心形 -->
  <path d="M256 432 L208 384 C160 336 128 296 128 256 C128 216 160 184 200 184 C224 184 240 200 256 216 C272 200 288 184 312 184 C352 184 384 216 384 256 C384 296 352 336 304 384 L256 432Z" fill="white" opacity="0.9"/>
</svg>
